# xmcd
#
# Track frame offsets: 
#        150
#        22385
#        38173
#        60118
#        74263
#        94598
#        112001
#        130281
#        144904
#        162504
#        191924
#        210512
#
# Disc length: 3086 seconds
#
# Revision: 0
# Processed by: cddbd v1.5.2PL0 Copyright (c) Steve Scherf et al.
# Submitted via: ExactAudioCopy v1.1
#
DISCID=ac0c0c0c
DTITLE=浅川マキ - DARKNESS IV disc 1 - 初期作品集 Vol.3
DYEAR=2007
DGENRE=Blues
TTITLE0=トラブル・イン・マインド Trouble in Mind
TTITLE1=翔ばないカラス
TTITLE2=町の酒場で
TTITLE3=ケンタウロスの子守唄
TTITLE4=ロンサム・ロード Lonesome Road
TTITLE5=わたしが娼婦になったなら
TTITLE6=愛さないの 愛せないの - アンダーグラウンドシアター - 蠍座ライヴ - 1968.12
TTITLE7=十三日の金曜日のブルース - アンダーグラウンドシアター - 蠍座ライヴ - 1968.12
TTITLE8=山河ありき - アンダーグラウンドシアター - 蠍座ライヴ - 1968.12
TTITLE9=ガソリン・アレイ GASOLINE ALLEY - 紀伊國屋ホールライブ - 1971大晦日
TTITLE10=さかみち - 紀伊國屋ホールライブ - 1971大晦日
TTITLE11=こんな風に過ぎて行くのなら
EXTD=
EXTT0=
EXTT1=
EXTT2=
EXTT3=
EXTT4=
EXTT5=
EXTT6=
EXTT7=
EXTT8=
EXTT9=
EXTT10=
EXTT11=
PLAYORDER=
